<?xml version="1.0" standalone="no"?>
<!DOCTYPE svg PUBLIC "-//W3C//DTD SVG 20010904//EN"
 "http://www.w3.org/TR/2001/REC-SVG-20010904/DTD/svg10.dtd">
<svg version="1.0" xmlns="http://www.w3.org/2000/svg"
 width="500.000000pt" height="500.000000pt" viewBox="0 0 500.000000 500.000000"
 preserveAspectRatio="xMidYMid meet">
<metadata>
Created by potrace 1.14, written by Peter Selinger 2001-2017
</metadata>
<g transform="translate(0.000000,500.000000) scale(0.100000,-0.100000)"
fill="#000000" stroke="none">
<path d="M2417 4994 c-1 -1 -47 -4 -102 -7 -82 -5 -278 -35 -406 -62 -118 -24
-347 -108 -505 -186 -460 -224 -852 -601 -1099 -1053 -132 -243 -232 -540
-271 -806 -2 -19 -6 -44 -9 -55 -17 -84 -25 -400 -13 -515 3 -36 9 -94 13
-130 3 -35 8 -67 10 -70 1 -3 6 -27 9 -55 4 -27 9 -57 11 -65 2 -8 6 -26 9
-40 13 -64 51 -197 86 -295 36 -101 119 -285 162 -358 15 -26 28 -50 28 -53 0
-3 8 -17 18 -32 10 -15 43 -63 72 -107 187 -279 432 -520 715 -704 276 -181
648 -325 945 -367 19 -2 44 -6 55 -9 100 -21 485 -28 635 -12 138 15 370 67
508 113 128 43 378 151 412 178 8 6 35 22 60 36 67 35 192 118 256 170 17 14
51 41 75 60 84 66 251 231 320 316 19 23 49 60 68 84 118 145 246 366 333 575
59 142 118 333 134 435 3 19 9 51 14 70 5 19 12 62 16 95 3 33 9 69 11 80 11
50 10 447 -2 545 -16 126 -25 193 -30 200 -2 3 -6 25 -10 50 -21 140 -119 414
-218 611 -50 99 -166 290 -209 344 -4 6 -29 37 -56 70 -141 179 -381 406 -517
491 -16 10 -32 21 -35 24 -7 8 -126 82 -184 115 -192 109 -483 222 -644 251
-14 3 -29 7 -33 9 -4 3 -24 7 -45 10 -22 3 -48 8 -60 10 -40 9 -159 24 -234
30 -74 7 -288 13 -293 9z m-29 -492 c16 -78 72 -192 138 -279 29 -40 128 -145
220 -235 278 -273 372 -389 454 -557 38 -78 76 -188 86 -246 2 -16 8 -55 13
-85 10 -56 8 -330 -2 -346 -2 -5 -8 -31 -11 -57 -17 -125 -105 -333 -198 -468
-82 -119 -159 -209 -327 -383 -125 -130 -125 -130 -201 -216 -36 -41 -67 -77
-70 -80 -4 -3 -31 -41 -62 -85 -95 -137 -175 -317 -192 -439 -8 -52 -17 -51
-35 5 -69 216 -47 388 115 883 41 127 76 239 78 250 3 12 14 56 25 100 11 43
23 99 27 125 3 25 7 53 10 61 14 53 14 203 -2 271 -18 79 -87 236 -159 359
-184 316 -256 480 -282 645 -9 55 -9 199 0 262 17 122 79 254 180 383 50 64
167 188 177 189 4 1 11 -25 18 -57z m-321 -1447 c60 -79 119 -201 145 -300 32
-121 31 -344 -2 -490 -23 -104 -73 -262 -141 -448 -99 -270 -123 -369 -122
-512 0 -120 21 -215 70 -324 24 -53 90 -170 102 -181 4 -3 23 -30 43 -60 56
-82 69 -101 105 -149 18 -24 33 -48 33 -52 0 -15 -154 70 -250 139 -115 81
-297 259 -374 364 -284 389 -291 831 -18 1223 31 44 76 107 102 140 187 244
235 438 185 750 l-7 40 42 -40 c23 -22 62 -67 87 -100z m1439 -822 c41 -162
51 -286 34 -408 -43 -310 -211 -559 -595 -879 -100 -83 -221 -203 -259 -256
-39 -55 -83 -153 -88 -198 -2 -18 -8 -33 -13 -34 -15 -1 -83 130 -112 217 -22
67 -26 101 -29 210 -3 150 14 232 72 350 88 175 133 230 439 539 266 268 377
415 445 592 l34 88 19 -44 c11 -24 35 -104 53 -177z"/>
</g>
</svg>
