<?xml version="1.0" standalone="no"?>
<!DOCTYPE svg PUBLIC "-//W3C//DTD SVG 20010904//EN"
 "http://www.w3.org/TR/2001/REC-SVG-20010904/DTD/svg10.dtd">
<svg version="1.0" xmlns="http://www.w3.org/2000/svg"
 width="1024.000000pt" height="1024.000000pt" viewBox="0 0 1024.000000 1024.000000"
 preserveAspectRatio="xMidYMid meet">
<metadata>
Created by potrace 1.14, written by Peter Selinger 2001-2017
</metadata>
<g transform="translate(0.000000,1024.000000) scale(0.100000,-0.100000)"
fill="#000000" stroke="none">
<path d="M4910 9145 c-142 -19 -245 -44 -350 -85 -30 -12 -62 -23 -70 -25 -25
-5 -205 -98 -208 -107 -2 -4 -7 -8 -12 -8 -8 0 -73 -43 -149 -98 -24 -18 -48
-32 -53 -32 -5 0 -24 -11 -42 -25 -18 -14 -37 -25 -43 -25 -5 0 -33 21 -61 48
-68 62 -70 64 -122 94 -46 26 -117 52 -180 64 -50 10 -288 10 -400 -1 -162
-15 -341 -7 -480 21 -86 17 -169 42 -187 57 -7 5 -13 7 -13 3 0 -4 -11 1 -25
10 -14 9 -25 14 -25 11 0 -8 24 -61 30 -67 3 -3 13 -21 24 -40 51 -95 171
-225 270 -293 115 -79 288 -155 416 -183 19 -4 40 -9 45 -10 6 -1 28 -5 50 -9
22 -3 47 -8 55 -10 23 -6 125 -15 218 -19 46 -2 85 -6 88 -9 2 -2 -14 -43 -36
-92 -67 -144 -122 -331 -146 -492 -3 -26 -9 -57 -11 -68 -9 -38 -12 -380 -3
-435 4 -30 11 -75 14 -100 16 -105 69 -270 129 -400 132 -283 362 -538 635
-706 64 -40 67 -44 65 -78 -3 -39 -57 -179 -76 -194 -7 -5 -31 -12 -54 -16
-24 -3 -98 -14 -165 -25 -68 -11 -141 -23 -163 -27 -118 -18 -233 -46 -255
-62 -39 -29 -107 -118 -237 -309 -66 -98 -171 -253 -234 -346 -63 -92 -118
-175 -124 -185 -5 -9 -12 -19 -15 -22 -6 -6 -80 -112 -100 -144 -21 -33 -294
-431 -317 -462 -4 -5 -12 -17 -18 -26 -21 -32 -110 -160 -120 -172 -6 -6 -21
-28 -34 -48 -12 -21 -27 -38 -32 -38 -5 0 -9 -5 -9 -11 0 -6 -10 -24 -22 -39
-13 -16 -45 -59 -73 -97 -27 -37 -56 -74 -62 -81 -7 -7 -13 -17 -13 -20 0 -4
-10 -18 -22 -32 -13 -14 -42 -50 -65 -80 -65 -86 -84 -109 -143 -171 -56 -59
-143 -129 -159 -129 -5 0 -11 -4 -13 -8 -4 -10 -142 -68 -183 -76 -16 -4 -43
-9 -59 -12 -62 -11 -141 -45 -185 -79 -67 -52 -158 -132 -219 -192 l-53 -52
16 -31 c15 -30 52 -46 98 -44 18 1 23 -16 8 -31 -12 -14 -49 -117 -62 -173
-17 -78 -22 -123 -23 -204 0 -82 13 -110 58 -124 11 -4 47 -22 78 -41 65 -40
92 -39 154 5 64 46 105 93 131 151 42 91 89 158 173 245 94 97 99 103 188 237
82 124 125 159 171 139 16 -6 43 -31 60 -55 29 -41 151 -243 151 -250 0 -5 65
-119 88 -155 9 -14 17 -27 17 -30 5 -31 281 -438 375 -553 123 -151 279 -309
415 -422 33 -28 62 -52 65 -55 10 -11 175 -127 230 -162 106 -67 278 -158 298
-158 5 0 15 -7 22 -15 6 -8 15 -14 18 -13 4 1 18 -4 32 -9 58 -25 85 -36 93
-38 4 -2 9 -4 12 -5 3 -1 8 -3 13 -5 4 -1 14 -5 22 -8 80 -34 390 -118 487
-132 21 -3 49 -8 63 -10 14 -3 43 -7 65 -11 22 -3 49 -7 61 -9 158 -25 727
-26 862 0 9 1 40 6 67 9 46 6 194 32 240 43 11 2 30 6 42 9 149 31 440 136
603 218 97 49 309 171 320 186 3 3 27 21 54 40 52 35 196 150 232 185 11 11
36 34 55 51 19 17 63 61 98 98 35 36 67 66 72 66 5 0 8 3 7 8 -3 7 9 22 67 87
17 19 35 40 40 47 6 7 26 33 45 58 67 85 170 229 170 239 0 5 4 11 8 13 5 2
57 84 116 183 59 99 111 187 116 195 5 8 23 42 41 75 17 33 36 67 43 75 6 8
22 35 36 60 13 25 29 50 34 57 6 6 22 28 36 47 35 49 68 61 112 39 29 -14 88
-81 88 -100 0 -7 4 -13 9 -13 5 0 12 -8 15 -18 12 -35 105 -155 199 -253 54
-55 97 -107 97 -114 0 -7 3 -15 8 -17 4 -1 27 -42 51 -90 29 -59 56 -97 80
-115 20 -15 47 -37 60 -49 43 -40 86 -40 150 -2 31 19 68 39 83 46 41 17 56
56 53 137 -5 121 -25 217 -69 325 -14 33 -23 61 -20 61 16 5 27 7 48 8 34 1
72 40 68 68 -2 13 -39 54 -85 95 -44 40 -92 83 -105 96 -12 12 -27 22 -32 22
-6 0 -10 3 -10 8 0 4 -17 18 -38 32 -20 14 -39 27 -42 30 -8 8 -69 27 -145 45
-205 47 -310 113 -470 296 -17 19 -41 50 -55 69 -13 19 -27 37 -31 40 -4 3
-43 55 -88 115 -45 61 -88 118 -96 127 -8 9 -22 29 -32 45 -9 15 -20 30 -23
33 -15 14 -445 630 -520 745 -8 12 -42 63 -76 111 -33 49 -121 179 -196 289
-408 605 -427 630 -490 654 -23 8 -98 24 -178 37 -14 2 -41 7 -60 11 -19 3
-44 7 -55 8 -20 2 -83 12 -120 19 -11 2 -57 9 -103 17 -99 15 -105 22 -148
147 -32 95 -30 103 34 137 24 13 55 31 69 42 168 120 304 249 407 386 36 49
66 92 66 97 0 5 7 15 15 23 47 48 191 396 209 507 3 19 11 60 17 90 14 68 20
395 9 470 -17 108 -21 135 -26 152 -3 10 -7 28 -10 41 -10 61 -87 271 -115
317 -5 8 -15 29 -23 47 -8 17 -30 56 -50 87 -20 31 -32 56 -28 56 4 0 2 4 -4
8 -7 4 -33 36 -59 72 -51 69 -72 94 -146 169 -72 72 -120 114 -189 166 -36 26
-68 52 -72 59 -4 6 -8 8 -8 4 0 -4 -25 8 -56 28 -63 41 -215 114 -256 123 -4
1 -24 9 -45 17 -20 9 -44 17 -52 19 -9 2 -41 10 -72 19 -67 20 -89 24 -154 32
-27 4 -54 9 -58 11 -19 11 -328 9 -417 -2z m-2299 -181 c24 -8 53 -17 64 -20
91 -18 122 -23 185 -31 76 -9 319 -8 410 2 154 16 317 10 402 -15 82 -24 180
-82 223 -131 55 -63 172 -148 260 -189 78 -35 159 -49 320 -55 72 -2 147 -8
167 -13 83 -21 143 -66 191 -144 29 -48 23 -55 -50 -61 -77 -6 -128 -26 -246
-95 -45 -26 -100 -55 -122 -64 -135 -58 -326 -63 -447 -13 -22 9 -35 -22 -44
-107 -12 -115 -6 -241 18 -348 5 -25 11 -53 13 -63 3 -13 -5 -22 -28 -32 -53
-22 -390 -135 -403 -135 -12 0 -11 176 1 270 3 25 7 61 9 80 17 143 93 394
162 536 24 50 44 95 44 100 0 6 -38 11 -92 12 -96 2 -212 10 -238 18 -8 2 -33
6 -55 9 -38 5 -62 9 -105 20 -11 3 -30 7 -42 10 -103 22 -287 106 -381 173
-88 62 -205 189 -250 270 -21 37 -22 37 34 16z m2029 -127 c38 -8 169 -28 220
-33 126 -13 509 -12 594 2 49 8 94 13 99 11 5 -1 -9 -20 -30 -42 -165 -167
-399 -267 -676 -290 -49 -4 -66 -1 -108 21 -66 35 -146 51 -266 53 -117 2
-186 9 -233 23 -53 15 -151 65 -183 92 -16 14 -34 27 -40 29 -35 13 120 93
235 121 79 20 113 23 228 21 74 -2 146 -5 160 -8z m680 -303 c36 -8 74 -16 85
-19 75 -18 206 -78 290 -134 144 -95 289 -263 363 -421 29 -63 68 -173 76
-215 22 -119 28 -269 14 -361 -5 -32 -10 -70 -12 -84 -6 -42 -54 -177 -87
-243 -34 -67 -108 -180 -121 -185 -4 -2 -8 -8 -8 -12 0 -9 -102 -112 -106
-107 -1 1 -5 40 -8 87 -3 47 -7 96 -10 110 -2 14 -7 46 -10 71 -40 293 -154
491 -331 579 -97 47 -166 62 -315 65 -109 3 -151 -1 -220 -17 -216 -52 -348
-185 -420 -423 -21 -71 -31 -109 -36 -150 -3 -16 -7 -41 -10 -54 -3 -14 -8
-52 -11 -85 -3 -34 -7 -68 -8 -76 -2 -8 -4 -34 -4 -57 -1 -24 -4 -43 -9 -43
-21 0 -127 120 -177 200 -63 100 -126 254 -141 340 -27 168 -25 315 6 446 25
109 44 159 91 249 l37 70 77 17 c77 18 202 72 260 114 89 62 219 93 305 73 27
-7 12 67 -25 122 -29 44 -31 58 -10 60 74 6 159 20 208 34 26 8 47 11 47 8 0
-3 7 0 15 7 8 7 15 10 15 7 0 -3 26 5 58 18 69 28 54 27 132 9z m-90 -1238
c92 -6 173 -25 231 -53 37 -18 81 -70 86 -102 10 -71 17 -204 17 -356 1 -247
-11 -326 -61 -392 -35 -48 -73 -45 -158 13 -80 55 -108 64 -200 70 -90 5 -152
-13 -240 -70 -108 -70 -157 -60 -194 39 -28 74 -36 152 -36 345 1 178 10 317
26 357 35 93 135 139 324 150 50 3 92 7 93 9 2 1 9 1 15 -1 7 -2 50 -6 97 -9z
m82 -1034 c86 -42 99 -71 60 -131 -17 -26 -38 -45 -60 -52 -31 -10 -38 -8 -95
27 -81 50 -113 50 -194 0 -69 -42 -96 -43 -134 -3 -55 57 -54 108 4 142 72 43
116 52 236 51 108 -2 121 -4 183 -34z m-588 -443 c22 -6 84 -31 136 -56 52
-25 113 -52 135 -60 60 -21 153 -27 205 -12 25 7 50 13 56 15 6 1 53 22 105
47 186 90 218 94 464 62 36 -5 128 -18 135 -20 3 -1 34 -5 70 -9 78 -10 102
-18 92 -31 -8 -11 -82 -52 -222 -122 -52 -27 -98 -52 -102 -58 -4 -5 -8 -6 -8
-2 0 4 -10 2 -22 -5 -13 -6 -27 -13 -33 -14 -5 -1 -23 -8 -40 -15 -16 -7 -32
-13 -35 -13 -3 -1 -18 -7 -35 -14 -30 -12 -159 -48 -205 -58 -14 -2 -30 -6
-37 -9 -51 -18 -306 -25 -423 -12 -51 5 -137 20 -157 26 -2 1 -5 1 -8 1 -3 1
-24 8 -47 16 -24 9 -50 17 -58 18 -8 1 -22 5 -30 8 -8 4 -42 16 -75 28 -33 11
-76 28 -95 37 -76 34 -185 87 -190 92 -3 3 -44 26 -92 51 -49 25 -88 48 -88
52 0 5 1 8 3 8 2 0 28 4 58 10 30 5 74 12 99 15 25 3 72 10 105 15 33 5 84 12
114 15 30 3 56 7 58 9 7 6 127 -4 167 -15z m-499 -141 c103 -57 293 -148 308
-148 7 0 17 -4 23 -8 5 -5 29 -15 54 -22 25 -8 50 -17 55 -21 6 -3 24 -9 40
-12 17 -3 55 -12 85 -20 99 -28 203 -39 355 -39 94 0 118 2 220 17 63 10 237
56 268 72 15 7 27 11 27 7 0 -3 11 1 25 10 13 9 30 16 37 16 14 0 300 139 308
150 3 3 20 12 38 19 17 8 32 18 32 23 0 5 4 7 9 4 4 -3 17 4 27 15 16 18 26
19 73 14 31 -4 58 -8 61 -10 3 -1 28 -5 55 -9 28 -3 61 -8 75 -11 14 -3 39 -7
55 -10 88 -15 133 -30 158 -54 35 -31 197 -255 197 -270 0 -6 4 -11 8 -11 5 0
15 -12 22 -27 8 -16 22 -37 31 -48 9 -11 54 -76 100 -145 45 -69 87 -126 91
-128 4 -2 8 -8 8 -12 0 -10 117 -186 138 -208 6 -7 12 -17 12 -21 0 -4 8 -16
18 -27 9 -11 22 -28 27 -37 18 -30 250 -372 256 -377 6 -5 127 -180 144 -208
6 -10 13 -19 16 -22 3 -3 32 -44 66 -92 43 -62 59 -95 57 -114 -1 -14 -5 -76
-8 -137 -3 -62 -8 -121 -10 -132 -2 -11 -7 -45 -10 -75 -29 -230 -112 -530
-211 -760 -69 -160 -148 -306 -186 -344 -16 -15 -26 -32 -23 -37 3 -5 -7 -9
-23 -9 -19 0 -24 3 -14 9 7 5 9 11 4 14 -5 3 -10 25 -11 49 -2 39 -6 72 -18
153 -16 104 -89 291 -129 332 -8 8 -15 18 -15 23 0 20 -114 118 -166 144 -107
53 -272 44 -381 -19 -23 -14 -44 -21 -47 -16 -5 7 -61 157 -70 186 -2 6 -6 17
-9 25 -4 8 -25 67 -47 130 -22 63 -43 122 -47 130 -3 8 -7 20 -9 25 -1 6 -18
49 -37 97 -114 277 -222 429 -362 504 -149 81 -372 92 -502 26 -91 -47 -170
-153 -208 -282 -29 -101 -29 -333 1 -434 5 -16 2 -17 -37 -12 -55 8 -165 19
-201 20 -40 1 -43 12 -16 48 21 28 86 164 93 193 1 6 5 18 9 27 4 9 9 22 10
30 1 7 8 31 14 53 6 22 13 51 16 65 16 85 26 142 31 190 4 30 16 73 28 95 15
30 20 58 20 113 -1 143 -87 260 -243 329 -107 48 -182 63 -325 67 -294 8 -490
-135 -541 -394 -3 -14 -7 -32 -9 -40 -18 -64 -25 -381 -11 -500 8 -73 9 -223
0 -290 -21 -178 -100 -322 -206 -374 -55 -28 -63 -23 -65 44 -1 33 -8 79 -14
103 -6 23 -11 64 -10 90 4 138 -125 237 -313 243 -138 4 -261 -44 -356 -139
-43 -44 -109 -151 -116 -191 -2 -6 -7 -31 -11 -56 -5 -25 -9 -80 -8 -123 l1
-79 -38 4 c-21 2 -38 0 -38 -4 0 -4 -7 -5 -15 -2 -15 6 -45 -17 -45 -35 0 -6
-4 -11 -10 -11 -5 0 -10 -7 -10 -15 0 -9 -11 -37 -25 -64 -13 -27 -21 -51 -18
-55 4 -3 1 -6 -6 -6 -7 0 -9 -5 -5 -12 4 -7 3 -8 -4 -4 -6 4 -20 3 -30 -3 -20
-11 -87 14 -109 40 -11 14 -109 293 -116 334 -2 11 -7 27 -10 35 -3 8 -8 29
-11 45 -3 17 -13 64 -21 105 -9 41 -18 89 -20 105 -2 17 -7 48 -10 70 -4 22
-8 51 -10 65 -5 30 -16 183 -20 260 -2 54 10 100 27 100 4 0 8 5 8 11 0 6 11
25 25 43 29 35 29 35 71 96 203 291 334 484 334 490 0 5 4 10 8 12 6 2 79 107
162 233 68 104 175 261 181 265 3 3 13 19 22 35 8 17 25 40 36 52 12 12 21 25
21 27 0 6 110 170 198 296 25 36 54 73 64 83 10 10 18 21 18 25 1 26 97 58
230 77 47 6 105 16 170 29 63 12 66 11 105 -13 22 -13 72 -42 110 -63z m925
-1548 c0 -17 -34 -196 -45 -242 -3 -10 -7 -26 -9 -35 -20 -86 -84 -226 -134
-293 -35 -48 -128 -140 -141 -140 -6 0 -11 -4 -11 -8 0 -12 -108 -60 -155 -70
-124 -25 -256 33 -383 168 -42 44 -107 161 -118 210 -2 14 -7 39 -11 55 -13
65 -12 208 2 234 53 104 182 129 535 105 215 -14 387 -4 440 27 23 13 30 11
30 -11z m-2740 -270 c0 -19 -5 -30 -14 -30 -8 0 -13 8 -11 18 2 9 4 23 4 30 2
26 21 10 21 -18z m5449 7 c6 -8 8 -16 5 -20 -10 -9 -34 4 -34 19 0 18 14 18
29 1z m-2515 -132 c65 -61 194 -123 296 -141 142 -25 230 -64 297 -131 51 -51
59 -62 97 -133 l24 -45 -43 -67 c-96 -147 -271 -225 -405 -180 -72 24 -168
129 -223 244 -39 81 -66 148 -73 183 -1 6 -7 30 -12 55 -22 91 -35 257 -24
288 3 8 15 -2 30 -25 14 -21 31 -42 36 -48z m-1174 -136 c0 -14 51 -85 92
-130 18 -19 67 -59 109 -87 89 -61 175 -87 259 -79 l55 5 -45 -21 c-66 -31
-227 -28 -266 4 -8 6 -14 9 -14 5 0 -8 -88 42 -125 71 -104 81 -105 83 -99
121 3 20 7 56 9 81 2 25 3 47 4 49 2 7 21 -10 21 -19z m-384 -325 c42 -248 2
-429 -121 -550 -66 -65 -119 -84 -223 -80 -172 7 -301 89 -354 226 -44 111
-45 127 -8 158 98 83 257 149 455 188 56 11 188 54 208 67 27 19 39 17 43 -9z
m2314 -106 l17 -57 -23 -22 c-13 -12 -24 -18 -24 -13 0 5 -4 4 -8 -2 -24 -37
-211 -94 -243 -73 -12 7 -12 9 1 9 17 0 107 59 152 98 15 14 42 47 59 74 18
27 36 47 42 45 5 -1 17 -28 27 -59z m512 -256 c45 -66 112 -128 220 -206 80
-57 100 -90 97 -165 -5 -145 -96 -240 -238 -247 -176 -9 -282 125 -287 360 -2
141 38 270 112 354 l28 32 19 -43 c11 -23 33 -61 49 -85z m-1422 -3 c106 -47
168 -154 186 -321 8 -81 11 -167 5 -177 -10 -15 -144 55 -198 103 -88 80 -123
173 -116 315 5 117 19 126 123 80z m3884 -34 c3 -9 0 -15 -9 -15 -9 0 -12 6
-9 15 4 8 7 15 9 15 2 0 5 -7 9 -15z m-5808 -227 c27 -12 56 -23 64 -25 8 -1
36 -6 63 -11 26 -5 70 -8 97 -5 40 3 49 1 44 -10 -7 -20 -70 -47 -110 -47 -44
0 -127 39 -179 85 -47 41 -44 42 21 13z m3681 -293 c-2 -41 -10 -81 -16 -89
-7 -8 -38 -27 -69 -43 -77 -38 -168 -40 -206 -4 -14 14 -26 27 -26 31 0 3 23
7 51 8 108 3 208 60 246 140 8 17 17 32 20 32 3 0 3 -34 0 -75z"/>
</g>
</svg>
